<mxfile host="www.draw.io" modified="2019-12-22T07:53:38.442Z" agent="Mozilla/5.0 (Macintosh; Intel Mac OS X 10_14_0) AppleWebKit/537.36 (KHTML, like Gecko) Chrome/79.0.3945.88 Safari/537.36" etag="75eb72AY42tuJR5Al1pl" version="12.4.3" type="github" pages="1">
  <diagram id="1CAOGgvIvjKLpsvZ2Gji" name="Page-1">
    <mxGraphModel dx="1186" dy="741" grid="1" gridSize="10" guides="1" tooltips="1" connect="1" arrows="1" fold="1" page="1" pageScale="1" pageWidth="827" pageHeight="1169" math="0" shadow="0">
      <root>
        <mxCell id="0"/>
        <mxCell id="1" parent="0"/>
        <mxCell id="thZ5vhYtM6uTpVSWlaAe-1" value="Builder" style="swimlane;fontStyle=1;align=center;verticalAlign=top;childLayout=stackLayout;horizontal=1;startSize=26;horizontalStack=0;resizeParent=1;resizeParentMax=0;resizeLast=0;collapsible=1;marginBottom=0;fillColor=#F08E81;fontColor=#FFFFFF;html=1;" parent="1" vertex="1">
          <mxGeometry x="333" y="220" width="160" height="60" as="geometry"/>
        </mxCell>
        <mxCell id="thZ5vhYtM6uTpVSWlaAe-2" value="" style="line;strokeWidth=1;fillColor=#F08E81;align=left;verticalAlign=middle;spacingTop=-1;spacingLeft=3;spacingRight=3;rotatable=0;labelPosition=right;points=[];portConstraint=eastwest;fontColor=#FFFFFF;" parent="thZ5vhYtM6uTpVSWlaAe-1" vertex="1">
          <mxGeometry y="26" width="160" height="8" as="geometry"/>
        </mxCell>
        <mxCell id="thZ5vhYtM6uTpVSWlaAe-3" value="+ build()" style="text;strokeColor=none;fillColor=#F08E81;align=left;verticalAlign=top;spacingLeft=4;spacingRight=4;overflow=hidden;rotatable=0;points=[[0,0.5],[1,0.5]];portConstraint=eastwest;fontColor=#FFFFFF;" parent="thZ5vhYtM6uTpVSWlaAe-1" vertex="1">
          <mxGeometry y="34" width="160" height="26" as="geometry"/>
        </mxCell>
        <mxCell id="thZ5vhYtM6uTpVSWlaAe-4" value="ConcreteBuilder" style="swimlane;fontStyle=1;align=center;verticalAlign=top;childLayout=stackLayout;horizontal=1;startSize=26;horizontalStack=0;resizeParent=1;resizeParentMax=0;resizeLast=0;collapsible=1;marginBottom=0;fillColor=#F08E81;fontColor=#FFFFFF;html=1;" parent="1" vertex="1">
          <mxGeometry x="333" y="370" width="160" height="60" as="geometry"/>
        </mxCell>
        <mxCell id="thZ5vhYtM6uTpVSWlaAe-5" value="" style="line;strokeWidth=1;fillColor=#F08E81;align=left;verticalAlign=middle;spacingTop=-1;spacingLeft=3;spacingRight=3;rotatable=0;labelPosition=right;points=[];portConstraint=eastwest;fontColor=#FFFFFF;" parent="thZ5vhYtM6uTpVSWlaAe-4" vertex="1">
          <mxGeometry y="26" width="160" height="8" as="geometry"/>
        </mxCell>
        <mxCell id="thZ5vhYtM6uTpVSWlaAe-6" value="+ build()" style="text;strokeColor=none;fillColor=#F08E81;align=left;verticalAlign=top;spacingLeft=4;spacingRight=4;overflow=hidden;rotatable=0;points=[[0,0.5],[1,0.5]];portConstraint=eastwest;fontColor=#FFFFFF;" parent="thZ5vhYtM6uTpVSWlaAe-4" vertex="1">
          <mxGeometry y="34" width="160" height="26" as="geometry"/>
        </mxCell>
        <mxCell id="thZ5vhYtM6uTpVSWlaAe-7" value="Extends" style="endArrow=block;endSize=16;endFill=0;html=1;fontColor=#000000;exitX=0.5;exitY=0;exitDx=0;exitDy=0;entryX=0.5;entryY=1;entryDx=0;entryDy=0;" parent="1" source="thZ5vhYtM6uTpVSWlaAe-4" target="thZ5vhYtM6uTpVSWlaAe-1" edge="1">
          <mxGeometry width="160" relative="1" as="geometry">
            <mxPoint x="173" y="300" as="sourcePoint"/>
            <mxPoint x="333" y="300" as="targetPoint"/>
          </mxGeometry>
        </mxCell>
        <mxCell id="thZ5vhYtM6uTpVSWlaAe-8" value="Product" style="swimlane;fontStyle=0;childLayout=stackLayout;horizontal=1;startSize=50;fillColor=#F08E81;horizontalStack=0;resizeParent=1;resizeParentMax=0;resizeLast=0;collapsible=1;marginBottom=0;fontColor=#FFFFFF;html=1;strokeColor=#000000;" parent="1" vertex="1">
          <mxGeometry x="590" y="375" width="140" height="50" as="geometry">
            <mxRectangle x="560" y="370" width="70" height="50" as="alternateBounds"/>
          </mxGeometry>
        </mxCell>
        <mxCell id="thZ5vhYtM6uTpVSWlaAe-9" style="edgeStyle=orthogonalEdgeStyle;rounded=0;orthogonalLoop=1;jettySize=auto;html=1;exitX=0.5;exitY=1;exitDx=0;exitDy=0;startSize=26;fontColor=#FFFFFF;" parent="1" source="thZ5vhYtM6uTpVSWlaAe-8" target="thZ5vhYtM6uTpVSWlaAe-8" edge="1">
          <mxGeometry relative="1" as="geometry"/>
        </mxCell>
        <mxCell id="thZ5vhYtM6uTpVSWlaAe-10" value="Use" style="endArrow=open;endSize=12;dashed=1;html=1;fontColor=#000000;entryX=0;entryY=0.5;entryDx=0;entryDy=0;exitX=1;exitY=0.5;exitDx=0;exitDy=0;" parent="1" source="thZ5vhYtM6uTpVSWlaAe-4" target="thZ5vhYtM6uTpVSWlaAe-8" edge="1">
          <mxGeometry width="160" relative="1" as="geometry">
            <mxPoint x="540" y="400" as="sourcePoint"/>
            <mxPoint x="650" y="400" as="targetPoint"/>
          </mxGeometry>
        </mxCell>
        <mxCell id="thZ5vhYtM6uTpVSWlaAe-11" value="Director" style="swimlane;fontStyle=1;align=center;verticalAlign=top;childLayout=stackLayout;horizontal=1;startSize=26;horizontalStack=0;resizeParent=1;resizeParentMax=0;resizeLast=0;collapsible=1;marginBottom=0;fillColor=#F08E81;fontColor=#FFFFFF;html=1;" parent="1" vertex="1">
          <mxGeometry x="80" y="220" width="160" height="60" as="geometry"/>
        </mxCell>
        <mxCell id="thZ5vhYtM6uTpVSWlaAe-12" value="" style="line;strokeWidth=1;fillColor=#F08E81;align=left;verticalAlign=middle;spacingTop=-1;spacingLeft=3;spacingRight=3;rotatable=0;labelPosition=right;points=[];portConstraint=eastwest;fontColor=#FFFFFF;" parent="thZ5vhYtM6uTpVSWlaAe-11" vertex="1">
          <mxGeometry y="26" width="160" height="8" as="geometry"/>
        </mxCell>
        <mxCell id="thZ5vhYtM6uTpVSWlaAe-13" value="+ construct()" style="text;strokeColor=none;fillColor=#F08E81;align=left;verticalAlign=top;spacingLeft=4;spacingRight=4;overflow=hidden;rotatable=0;points=[[0,0.5],[1,0.5]];portConstraint=eastwest;fontColor=#FFFFFF;" parent="thZ5vhYtM6uTpVSWlaAe-11" vertex="1">
          <mxGeometry y="34" width="160" height="26" as="geometry"/>
        </mxCell>
        <mxCell id="thZ5vhYtM6uTpVSWlaAe-14" value="" style="endArrow=diamondThin;endFill=0;endSize=24;html=1;fontColor=#000000;entryX=1;entryY=0.5;entryDx=0;entryDy=0;exitX=0;exitY=0.5;exitDx=0;exitDy=0;" parent="1" source="thZ5vhYtM6uTpVSWlaAe-1" target="thZ5vhYtM6uTpVSWlaAe-11" edge="1">
          <mxGeometry width="160" relative="1" as="geometry">
            <mxPoint x="70" y="400" as="sourcePoint"/>
            <mxPoint x="230" y="400" as="targetPoint"/>
          </mxGeometry>
        </mxCell>
      </root>
    </mxGraphModel>
  </diagram>
</mxfile>
